<mxfile host="app.diagrams.net" modified="2023-05-29T09:02:19.682Z" agent="Mozilla/5.0 (Windows NT 10.0; Win64; x64) AppleWebKit/537.36 (KHTML, like Gecko) Chrome/106.0.0.0 Safari/537.36" version="21.3.5" etag="4hIhuTJ8Y6OMgDGYz7l5" type="github">
  <diagram name="第 1 页" id="cQN1HLs-lAaxBroB3lbu">
    <mxGraphModel>
      <root>
        <mxCell id="0" />
        <mxCell id="1" parent="0" />
      </root>
    </mxGraphModel>
  </diagram>
</mxfile>
